<svg width="681" height="680" viewBox="0 0 681 680" fill="none" xmlns="http://www.w3.org/2000/svg">
<mask id="mask0_9_2" style="mask-type:luminance" maskUnits="userSpaceOnUse" x="0" y="187" width="307" height="306">
<path d="M306.138 187H0V492.76H306.138V187Z" fill="white"/>
</mask>
<g mask="url(#mask0_9_2)">
<path d="M242.137 187V215.69C217.048 197.735 186.297 187.165 153.069 187.165C68.5317 187.165 0 255.576 0 339.963C0 424.35 68.5317 492.76 153.069 492.76C186.297 492.76 217.048 482.19 242.137 464.236V492.595H306.138V187H242.137ZM204.277 344.593C182.48 352.28 165.206 369.523 157.506 391.281C154.675 399.262 153.134 407.855 153.134 416.807C153.134 407.855 151.592 399.262 148.761 391.281C141.061 369.523 123.788 352.28 101.991 344.593C93.9949 341.768 85.3874 340.229 76.4194 340.229C85.3874 340.229 93.9949 338.69 101.991 335.864C123.788 328.178 141.061 310.935 148.761 289.176C151.592 281.195 153.134 272.602 153.134 263.65C153.134 272.602 154.675 281.195 157.506 289.176C165.206 310.935 182.48 328.178 204.277 335.864C212.272 338.69 220.88 340.229 229.848 340.229C220.88 340.229 212.272 341.768 204.277 344.593Z" fill="black"/>
</g>
<path d="M451.396 187C493.665 187 527.93 221.224 527.931 263.441C527.931 221.497 561.755 187.443 603.646 187.004V187H680V492.76C637.797 492.573 603.646 458.342 603.646 416.146V339.888C561.755 340.327 527.931 374.381 527.931 416.325C527.93 374.107 493.665 339.884 451.396 339.884H451.217V416.146C451.217 458.342 417.066 492.573 374.862 492.76V187H451.396Z" fill="black"/>
</svg>
