<svg width="109" height="50" viewBox="0 0 109 50" fill="none" xmlns="http://www.w3.org/2000/svg">
<g clip-path="url(#clip0_2263_646)">
<path d="M38.7561 1V5.59775C34.7404 2.72041 29.8185 1.0265 24.5 1.0265C10.9691 1.0265 0 11.9897 0 25.5133C0 39.0368 10.9691 50 24.5 50C29.8185 50 34.7404 48.3061 38.7561 45.4288V49.9735H49V1H38.7561ZM32.6963 26.2553C29.2075 27.4872 26.4427 30.2504 25.2102 33.7373C24.7571 35.0164 24.5104 36.3934 24.5104 37.8281C24.5104 36.3934 24.2636 35.0164 23.8105 33.7373C22.578 30.2504 19.8133 27.4872 16.3245 26.2553C15.0447 25.8025 13.667 25.5559 12.2316 25.5559C13.667 25.5559 15.0447 25.3093 16.3245 24.8564C19.8133 23.6246 22.578 20.8613 23.8105 17.3744C24.2636 16.0954 24.5104 14.7183 24.5104 13.2837C24.5104 14.7183 24.7571 16.0954 25.2102 17.3744C26.4427 20.8613 29.2075 23.6246 32.6963 24.8564C33.976 25.3093 35.3538 25.5559 36.7892 25.5559C35.3538 25.5559 33.976 25.8025 32.6963 26.2553Z" fill="#0C15CF"/>
</g>
<path d="M72.2212 1V37.722C72.2212 44.4842 66.7551 49.97 60 50V1H72.2212Z" fill="#0C15CF"/>
<path d="M109 1V50C102.245 49.97 96.7788 44.4842 96.7788 37.722V1H109Z" fill="#0C15CF"/>
<path d="M96.7788 1V25.5006H96.75C89.9846 25.5006 84.5 30.9852 84.5 37.7509C84.5 30.9852 79.0155 25.5006 72.25 25.5006H72.2212V1H72.25C79.0155 1 84.5 6.48467 84.5 13.2503C84.5 6.48467 89.9846 1 96.75 1H96.7788Z" fill="#0C15CF" stroke="#0C15CF" stroke-width="0.25" stroke-miterlimit="10"/>
<defs>
<clipPath id="clip0_2263_646">
<rect width="49" height="49" fill="white" transform="translate(0 1)"/>
</clipPath>
</defs>
</svg>
