<svg width="144" height="143" viewBox="0 0 144 143" fill="none" xmlns="http://www.w3.org/2000/svg">
<path d="M72 143C72 134.642 70.5532 126.619 67.8963 119.167C60.6693 98.8513 44.4575 82.752 24 75.5752C16.4958 72.9367 8.4169 71.5 -3.12536e-06 71.5C8.4169 71.5 16.4958 70.0633 24 67.4248C44.4575 60.248 60.6693 44.1487 67.8963 23.8333C70.5532 16.3812 72 8.35845 72 -3.14722e-06C72 8.35845 73.4468 16.3812 76.1037 23.8333C83.3307 44.1487 99.5425 60.248 120 67.4248C127.504 70.0633 135.583 71.5 144 71.5C135.583 71.5 127.504 72.9367 120 75.5752C99.5425 82.752 83.3307 98.8513 76.1037 119.167C73.4468 126.619 72 134.642 72 143Z" fill="#0C15CF"/>
</svg>
