<svg width="310" height="309" viewBox="0 0 310 309" fill="none" xmlns="http://www.w3.org/2000/svg">
<path d="M155 309C155 290.939 151.885 273.603 146.166 257.5C130.608 213.602 95.707 178.814 51.6666 163.306C35.5117 157.604 18.1197 154.5 -6.75341e-06 154.5C18.1197 154.5 35.5117 151.395 51.6667 145.694C95.707 130.186 130.608 95.3983 146.166 51.5C151.885 35.3972 155 18.0613 155 -6.77527e-06C155 18.0613 158.115 35.3972 163.834 51.5C179.392 95.3983 214.293 130.186 258.333 145.694C274.488 151.395 291.88 154.5 310 154.5C291.88 154.5 274.488 157.605 258.333 163.306C214.293 178.814 179.392 213.602 163.834 257.5C158.115 273.603 155 290.939 155 309Z" fill="#D9D9D9"/>
</svg>
