<svg width="680" height="306" viewBox="0 0 680 306" fill="none" xmlns="http://www.w3.org/2000/svg">
<mask id="mask0_9_15" style="mask-type:luminance" maskUnits="userSpaceOnUse" x="0" y="0" width="307" height="307">
<path d="M306.138 0.240234H0V306H306.138V0.240234Z" fill="white"/>
</mask>
<g mask="url(#mask0_9_15)">
<path d="M242.137 0.240234V28.9302C217.048 10.9756 186.297 0.405594 153.069 0.405594C68.5317 0.405594 0 68.816 0 153.203C0 237.59 68.5317 306 153.069 306C186.297 306 217.048 295.43 242.137 277.476V305.835H306.138V0.240234H242.137ZM204.277 157.833C182.48 165.52 165.206 182.763 157.506 204.521C154.675 212.503 153.134 221.095 153.134 230.048C153.134 221.095 151.592 212.503 148.761 204.521C141.061 182.763 123.788 165.52 101.991 157.833C93.9949 155.008 85.3874 153.469 76.4194 153.469C85.3874 153.469 93.9949 151.93 101.991 149.104C123.788 141.418 141.061 124.175 148.761 102.416C151.592 94.4355 153.134 85.8424 153.134 76.8905C153.134 85.8424 154.675 94.4355 157.506 102.416C165.206 124.175 182.48 141.418 204.277 149.104C212.272 151.93 220.88 153.469 229.848 153.469C220.88 153.469 212.272 155.008 204.277 157.833Z" fill="white"/>
</g>
<path d="M451.396 0.240234C493.665 0.240234 527.93 34.4643 527.931 76.6816C527.931 34.7377 561.755 0.683368 603.646 0.244141V0.240234H680V306C637.797 305.813 603.646 271.582 603.646 229.386V153.128C561.755 153.567 527.931 187.621 527.931 229.565C527.93 187.348 493.665 153.124 451.396 153.124H451.217V229.386C451.217 271.582 417.066 305.813 374.862 306V0.240234H451.396Z" fill="white"/>
</svg>
